# xmcd CD database file
#
# Track frame offsets:
#	150
#	17029
#	40289
#	58959
#	85151
#	102912
#	118373
#	140880
#	159992
#	179964
#	197498
#	214405
#	232163
#
# Disc length: 3395 seconds
#
# Revision: 1
# Processed by: cddbd v1.5.2PL0 Copyright (c) Steve Scherf et al.
# Submitted via: CDex 1.70beta2
#
DISCID=cb0d410d
DTITLE=影音使團 - Unknown CD for MusicBrainz and FreeDB
DYEAR=1999
DGENRE=Jazz
TTITLE0=基督2000
TTITLE1=上帝之城
TTITLE2=永恆無限
TTITLE3=尋愛者之歌
TTITLE4=上帝聽禱告
TTITLE5=瀟灑走我路
TTITLE6=未棄絕我
TTITLE7=原來是你
TTITLE8=愛的滋味
TTITLE9=載歌
TTITLE10=基督2000 (MMO)
TTITLE11=上帝聽禱告 (MMO)
TTITLE12=上帝之城 (MMO)
EXTD=YEAR: 1999
EXTT0=
EXTT1=
EXTT2=
EXTT3=
EXTT4=
EXTT5=
EXTT6=
EXTT7=
EXTT8=
EXTT9=
EXTT10=
EXTT11=
EXTT12=
PLAYORDER=
